<svg xmlns="http://www.w3.org/2000/svg" id="imageai" viewBox="0 0 24 24">
  <path d="M20.75,8.7v9.3H3.25V6c0-1.52,1.23-2.75,2.75-2.75h11.27c-.13.19-.25.43-.35.71-.22.09-.44.19-.64.31l-.2.1-.15.16c-.84.85-.68,1.72-.58,2.06.21.67.74,1.16,1.59,1.48.54,1.43,1.47,1.67,2.03,1.67.38,0,.95-.12,1.51-.68l.16-.16.11-.2Z" fill="#87ddfd" class="colorbad7ff svgShape"></path>
  <path d="M20.75 14.85v3.15c0 1.52-1.23 2.75-2.75 2.75H6c-1.52 0-2.75-1.23-2.75-2.75v-2.06l3.98-3.41c1.02-.88 2.51-.89 3.55-.02l2.05 1.7 1.73-1.15c.87-.58 1.98-.62 2.89-.1l3.3 1.89ZM21 5.58c-.379-.199-.761-.337-1.145-.425-.085-.388-.225-.773-.435-1.155-.704-.694-1.109.3-1.272 1.147-.385.086-.768.225-1.147.434-.696.707.307 1.112 1.156 1.274.165.85.561 1.849 1.263 1.145.201-.382.339-.768.427-1.155.852-.164 1.86-.56 1.153-1.265Z" fill="#ff3677" class="color549bff svgShape"></path>
</svg>
